<svg xmlns="http://www.w3.org/2000/svg" width="537.78125" height="228.9992218017578" viewBox="-310.5713806152344 -108.19434356689453 537.78125 228.9992218017578"><title>Neo4j Graph Visualization</title><desc>Created using Neo4j (http://www.neo4j.com/)</desc><g class="layer relationships"><g class="relationship" transform="translate(15.411008515301528 -60.03986305601579) rotate(479.14511459511067)"><path class="b-outline" fill="#A5ABB6" stroke="none" d="M 40 0.5 L 49.453421128215226 0.5 L 49.453421128215226 -0.5 L 40 -0.5 Z M 104.80888987821523 0.5 L 114.26231100643045 0.5 L 114.26231100643045 3.5 L 121.26231100643045 0 L 114.26231100643045 -3.5 L 114.26231100643045 -0.5 L 104.80888987821523 -0.5 Z"/><text text-anchor="middle" pointer-events="none" font-size="8px" fill="#000000" x="77.13115550321523" y="3" transform="rotate(180 77.13115550321523 0)" font-family="Helvetica Neue, Helvetica, Arial, sans-serif">HAS_PILEUP</text></g><g class="relationship" transform="translate(-199.74296842102098 -17.12069868675627) rotate(485.6328397217319)"><path class="b-outline" fill="#A5ABB6" stroke="none" d="M 10.835724717245366 38.50762352901147 L 21.188486521346196 77.14465658057419 A 21.935935394489817 21.935935394489817 0 1 1 -21.188486521346196 77.14465658057419 L -12.647458032963009 45.26910431303495 L -8.783754727806736 46.30438049344503 L -10.352761804100831 38.63703305156273 L -15.545235511830214 44.49264717772739 L -11.68153220667394 45.52792335813747 L -20.22256069505713 77.40347562567672 A 20.935935394489817 20.935935394489817 0 1 0 20.22256069505713 77.40347562567672 L 9.869798890956297 38.76644257411399 Z"/><text text-anchor="middle" pointer-events="none" font-size="8px" fill="#000000" x="0" y="113.75802982729645" transform="rotate(180 0 110.75802982729645)" font-family="Helvetica Neue, Helvetica, Arial, sans-serif">NEIGHBOR</text></g><g class="relationship" transform="translate(15.411008515301528 -60.03986305601579) rotate(391.3077913359534)"><path class="b-outline" fill="#A5ABB6" stroke="none" d="M 40 0.5 L 59.13673333502493 0.5 L 59.13673333502493 -0.5 L 40 -0.5 Z M 134.94142083502493 0.5 L 154.07815417004986 0.5 L 154.07815417004986 3.5 L 161.07815417004986 0 L 154.07815417004986 -3.5 L 154.07815417004986 -0.5 L 134.94142083502493 -0.5 Z"/><text text-anchor="middle" pointer-events="none" font-size="8px" fill="#000000" x="97.03907708502493" y="3" font-family="Helvetica Neue, Helvetica, Arial, sans-serif">HAS_SLIP_TRACE</text></g><g class="relationship" transform="translate(-63.12748408220759 80.80486752218407) rotate(351.7364960621006)"><path class="b-outline" fill="#A5ABB6" stroke="none" d="M 40 0.5 L 85.07949384898018 0.5 L 85.07949384898018 -0.5 L 40 -0.5 Z M 160.88418134898018 0.5 L 205.96367519796036 0.5 L 205.96367519796036 3.5 L 212.96367519796036 0 L 205.96367519796036 -3.5 L 205.96367519796036 -0.5 L 160.88418134898018 -0.5 Z"/><text text-anchor="middle" pointer-events="none" font-size="8px" fill="#000000" x="122.98183759898018" y="3" font-family="Helvetica Neue, Helvetica, Arial, sans-serif">HAS_SLIP_TRACE</text></g><g class="relationship" transform="translate(-63.12748408220759 80.80486752218407) rotate(215.63283972173195)"><path class="b-outline" fill="#A5ABB6" stroke="none" d="M 40 0.5 L 57.17235792600823 0.5 L 57.17235792600823 -0.5 L 40 -0.5 Z M 103.91454542600823 0.5 L 121.08690335201646 0.5 L 121.08690335201646 3.5 L 128.08690335201646 0 L 121.08690335201646 -3.5 L 121.08690335201646 -0.5 L 103.91454542600823 -0.5 Z"/><text text-anchor="middle" pointer-events="none" font-size="8px" fill="#000000" x="80.54345167600823" y="3" transform="rotate(180 80.54345167600823 0)" font-family="Helvetica Neue, Helvetica, Arial, sans-serif">CONTAINS</text></g></g><g class="layer nodes"><g class="node" aria-label="graph-node-102" transform="translate(-63.12748408220759,80.80486752218407)"><circle class="b-outline" cx="0" cy="0" r="40" fill="#DA7194" stroke="#cc3c6c" stroke-width="2px"/><text class="caption" text-anchor="middle" pointer-events="none" x="0" y="5" font-size="10px" fill="#FFFFFF" font-family="Helvetica Neue, Helvetica, Arial, sans-serif"> Pileup</text></g><g class="node" aria-label="graph-node-101" transform="translate(187.20980583058616,44.44744395041482)"><circle class="b-outline" cx="0" cy="0" r="40" fill="#D9C8AE" stroke="#c0a378" stroke-width="2px"/><text class="caption" text-anchor="middle" pointer-events="none" x="0" y="5" font-size="10px" fill="#2A2C34" font-family="Helvetica Neue, Helvetica, Arial, sans-serif"> SlipTrace</text></g><g class="node" aria-label="graph-node-100" transform="translate(15.411008515301528,-60.03986305601579)"><circle class="b-outline" cx="0" cy="0" r="40" fill="#569480" stroke="#447666" stroke-width="2px"/><text class="caption" text-anchor="middle" pointer-events="none" x="0" y="5" font-size="10px" fill="#FFFFFF" font-family="Helvetica Neue, Helvetica, Arial, sans-serif"> Microstructure</text></g><g class="node" aria-label="graph-node-103" transform="translate(-199.74296842102098,-17.12069868675627)"><circle class="b-outline" cx="0" cy="0" r="40" fill="#57C7E3" stroke="#23b3d7" stroke-width="2px"/><text class="caption" text-anchor="middle" pointer-events="none" x="0" y="5" font-size="10px" fill="#2A2C34" font-family="Helvetica Neue, Helvetica, Arial, sans-serif"> Dislocation</text></g></g></svg>